<svg width="21" height="21" viewBox="0 0 21 21" fill="none" xmlns="http://www.w3.org/2000/svg">
<path fill-rule="evenodd" clip-rule="evenodd" d="M4.49422 3.63452C3.06897 3.63452 1.91357 4.78992 1.91357 6.21517V14.8173C1.91357 16.2426 3.06897 17.398 4.49422 17.398H16.5372C17.9625 17.398 19.1179 16.2426 19.1179 14.8173V6.21517C19.1179 4.78992 17.9625 3.63452 16.5372 3.63452H4.49422ZM3.71255 5.85554C3.84873 5.56006 4.14752 5.35495 4.49422 5.35495H16.5372C16.8839 5.35495 17.1827 5.56006 17.3189 5.85554L11.0438 10.7361C10.7332 10.9777 10.2982 10.9777 9.9876 10.7361L3.71255 5.85554ZM3.634 7.974V12.9807L6.74163 10.391L3.634 7.974ZM3.70532 15.1608C3.83792 15.4649 4.14124 15.6775 4.49422 15.6775H16.5372C16.8902 15.6775 17.1935 15.4649 17.3261 15.1608L12.8998 11.4722L12.1001 12.0942C11.1682 12.819 9.86326 12.819 8.93136 12.0942L8.13166 11.4722L3.70532 15.1608ZM17.3974 12.9807V7.974L14.2898 10.391L17.3974 12.9807Z" fill="#141313"/>
</svg>
