<svg width="21" height="21" viewBox="0 0 21 21" fill="none" xmlns="http://www.w3.org/2000/svg">
<path fill-rule="evenodd" clip-rule="evenodd" d="M4.43322 4.00348C5.94493 2.49178 8.39589 2.49178 9.9076 4.00348C11.4193 5.51519 11.4193 7.96615 9.9076 9.47786C9.34491 10.0405 8.65209 10.3938 7.92601 10.5376L10.0644 12.676C10.2082 11.9499 10.5614 11.2571 11.1241 10.6944C12.6358 9.18268 15.0868 9.18268 16.5985 10.6944C18.1102 12.2061 18.1102 14.6571 16.5985 16.1688C15.1896 17.5777 12.9648 17.6735 11.445 16.4562L11.4283 16.4729L11.1241 16.1688L4.43322 9.47786L4.12909 9.17373L4.1458 9.15702C2.92851 7.63715 3.02432 5.41239 4.43322 4.00348ZM12.3407 14.9522C13.1805 15.7921 14.5421 15.7921 15.382 14.9522C16.2218 14.1124 16.2218 12.7508 15.382 11.9109C14.5421 11.0711 13.1805 11.0711 12.3407 11.9109C11.5008 12.7508 11.5008 14.1124 12.3407 14.9522ZM8.69107 8.26133C7.85123 9.10117 6.48959 9.10117 5.64975 8.26133C4.80991 7.42149 4.80991 6.05985 5.64975 5.22001C6.48959 4.38017 7.85123 4.38017 8.69107 5.22001C9.53091 6.05985 9.53091 7.42149 8.69107 8.26133Z" fill="#141313"/>
</svg>
