<svg xmlns="http://www.w3.org/2000/svg" width="20" height="20" viewBox="0 0 20 20" fill="none">
  <path fill-rule="evenodd" clip-rule="evenodd" d="M13.5845 9.87941L10.0001 15.7918L6.41569 9.87941C4.67716 7.01174 6.69711 3.30911 10.0001 3.30911C13.3031 3.30911 15.323 7.01174 13.5845 9.87941ZM5.04806 10.7439C2.64618 6.78207 5.43685 1.66669 10.0001 1.66669C14.5633 1.66669 17.354 6.78207 14.9521 10.7439L10.5357 18.0287C10.2894 18.4349 9.71076 18.4349 9.46451 18.0287L5.04806 10.7439ZM10.0002 5.77274C9.1119 5.77274 8.39176 6.50808 8.39176 7.41517C8.39176 8.32225 9.1119 9.05759 10.0002 9.05759C10.8886 9.05759 11.6087 8.32225 11.6087 7.41517C11.6087 6.50808 10.8886 5.77274 10.0002 5.77274Z" fill="black"/>
</svg>